<mxfile host="app.diagrams.net" modified="2022-07-19T19:54:00.477Z" agent="5.0 (Windows NT 10.0; Win64; x64) AppleWebKit/537.36 (KHTML, like Gecko) Chrome/103.0.0.0 Safari/537.36" etag="GkEn9ynVJXCoiWVSYXIr" version="20.1.1" type="github">
  <diagram id="aA_sfdgUtZsmlyhYEaKP" name="Page-1">
    <mxGraphModel dx="1422" dy="762" grid="1" gridSize="10" guides="1" tooltips="1" connect="1" arrows="1" fold="1" page="1" pageScale="1" pageWidth="827" pageHeight="1169" math="0" shadow="0">
      <root>
        <mxCell id="0" />
        <mxCell id="1" parent="0" />
        <mxCell id="rESO7nxcmDGdPn7ryyiX-3" value="" style="rounded=0;whiteSpace=wrap;html=1;" parent="1" vertex="1">
          <mxGeometry x="10" y="10" width="830" height="770" as="geometry" />
        </mxCell>
        <mxCell id="rESO7nxcmDGdPn7ryyiX-56" value="" style="edgeStyle=orthogonalEdgeStyle;rounded=0;orthogonalLoop=1;jettySize=auto;html=1;entryX=0.5;entryY=0;entryDx=0;entryDy=0;entryPerimeter=0;" parent="1" source="rESO7nxcmDGdPn7ryyiX-5" target="rESO7nxcmDGdPn7ryyiX-104" edge="1">
          <mxGeometry relative="1" as="geometry">
            <mxPoint x="160" y="270" as="targetPoint" />
          </mxGeometry>
        </mxCell>
        <mxCell id="rESO7nxcmDGdPn7ryyiX-97" value="" style="edgeStyle=orthogonalEdgeStyle;rounded=0;orthogonalLoop=1;jettySize=auto;html=1;" parent="1" source="rESO7nxcmDGdPn7ryyiX-5" target="rESO7nxcmDGdPn7ryyiX-96" edge="1">
          <mxGeometry relative="1" as="geometry" />
        </mxCell>
        <mxCell id="rESO7nxcmDGdPn7ryyiX-5" value="" style="shape=table;html=1;whiteSpace=wrap;startSize=0;container=1;collapsible=0;childLayout=tableLayout;" parent="1" vertex="1">
          <mxGeometry x="30" y="90" width="240" height="130" as="geometry" />
        </mxCell>
        <mxCell id="rESO7nxcmDGdPn7ryyiX-6" value="" style="shape=tableRow;horizontal=0;startSize=0;swimlaneHead=0;swimlaneBody=0;top=0;left=0;bottom=0;right=0;collapsible=0;dropTarget=0;fillColor=none;points=[[0,0.5],[1,0.5]];portConstraint=eastwest;" parent="rESO7nxcmDGdPn7ryyiX-5" vertex="1">
          <mxGeometry width="240" height="43" as="geometry" />
        </mxCell>
        <mxCell id="rESO7nxcmDGdPn7ryyiX-7" value="cash number" style="shape=partialRectangle;html=1;whiteSpace=wrap;connectable=0;fillColor=none;top=0;left=0;bottom=0;right=0;overflow=hidden;" parent="rESO7nxcmDGdPn7ryyiX-6" vertex="1">
          <mxGeometry width="50" height="43" as="geometry">
            <mxRectangle width="50" height="43" as="alternateBounds" />
          </mxGeometry>
        </mxCell>
        <mxCell id="rESO7nxcmDGdPn7ryyiX-8" value="problem" style="shape=partialRectangle;html=1;whiteSpace=wrap;connectable=0;fillColor=none;top=0;left=0;bottom=0;right=0;overflow=hidden;" parent="rESO7nxcmDGdPn7ryyiX-6" vertex="1">
          <mxGeometry x="50" width="86" height="43" as="geometry">
            <mxRectangle width="86" height="43" as="alternateBounds" />
          </mxGeometry>
        </mxCell>
        <mxCell id="rESO7nxcmDGdPn7ryyiX-9" value="State" style="shape=partialRectangle;html=1;whiteSpace=wrap;connectable=0;fillColor=none;top=0;left=0;bottom=0;right=0;overflow=hidden;" parent="rESO7nxcmDGdPn7ryyiX-6" vertex="1">
          <mxGeometry x="136" width="44" height="43" as="geometry">
            <mxRectangle width="44" height="43" as="alternateBounds" />
          </mxGeometry>
        </mxCell>
        <mxCell id="rESO7nxcmDGdPn7ryyiX-49" value="date/time" style="shape=partialRectangle;html=1;whiteSpace=wrap;connectable=0;fillColor=none;top=0;left=0;bottom=0;right=0;overflow=hidden;" parent="rESO7nxcmDGdPn7ryyiX-6" vertex="1">
          <mxGeometry x="180" width="60" height="43" as="geometry">
            <mxRectangle width="60" height="43" as="alternateBounds" />
          </mxGeometry>
        </mxCell>
        <mxCell id="rESO7nxcmDGdPn7ryyiX-10" value="" style="shape=tableRow;horizontal=0;startSize=0;swimlaneHead=0;swimlaneBody=0;top=0;left=0;bottom=0;right=0;collapsible=0;dropTarget=0;fillColor=none;points=[[0,0.5],[1,0.5]];portConstraint=eastwest;" parent="rESO7nxcmDGdPn7ryyiX-5" vertex="1">
          <mxGeometry y="43" width="240" height="44" as="geometry" />
        </mxCell>
        <mxCell id="rESO7nxcmDGdPn7ryyiX-11" value="" style="shape=partialRectangle;html=1;whiteSpace=wrap;connectable=0;fillColor=none;top=0;left=0;bottom=0;right=0;overflow=hidden;" parent="rESO7nxcmDGdPn7ryyiX-10" vertex="1">
          <mxGeometry width="50" height="44" as="geometry">
            <mxRectangle width="50" height="44" as="alternateBounds" />
          </mxGeometry>
        </mxCell>
        <mxCell id="rESO7nxcmDGdPn7ryyiX-12" value="" style="shape=partialRectangle;html=1;whiteSpace=wrap;connectable=0;fillColor=none;top=0;left=0;bottom=0;right=0;overflow=hidden;" parent="rESO7nxcmDGdPn7ryyiX-10" vertex="1">
          <mxGeometry x="50" width="86" height="44" as="geometry">
            <mxRectangle width="86" height="44" as="alternateBounds" />
          </mxGeometry>
        </mxCell>
        <mxCell id="rESO7nxcmDGdPn7ryyiX-13" value="" style="shape=partialRectangle;html=1;whiteSpace=wrap;connectable=0;fillColor=none;top=0;left=0;bottom=0;right=0;overflow=hidden;" parent="rESO7nxcmDGdPn7ryyiX-10" vertex="1">
          <mxGeometry x="136" width="44" height="44" as="geometry">
            <mxRectangle width="44" height="44" as="alternateBounds" />
          </mxGeometry>
        </mxCell>
        <mxCell id="rESO7nxcmDGdPn7ryyiX-50" style="shape=partialRectangle;html=1;whiteSpace=wrap;connectable=0;fillColor=none;top=0;left=0;bottom=0;right=0;overflow=hidden;" parent="rESO7nxcmDGdPn7ryyiX-10" vertex="1">
          <mxGeometry x="180" width="60" height="44" as="geometry">
            <mxRectangle width="60" height="44" as="alternateBounds" />
          </mxGeometry>
        </mxCell>
        <mxCell id="rESO7nxcmDGdPn7ryyiX-14" value="" style="shape=tableRow;horizontal=0;startSize=0;swimlaneHead=0;swimlaneBody=0;top=0;left=0;bottom=0;right=0;collapsible=0;dropTarget=0;fillColor=none;points=[[0,0.5],[1,0.5]];portConstraint=eastwest;" parent="rESO7nxcmDGdPn7ryyiX-5" vertex="1">
          <mxGeometry y="87" width="240" height="43" as="geometry" />
        </mxCell>
        <mxCell id="rESO7nxcmDGdPn7ryyiX-15" value="" style="shape=partialRectangle;html=1;whiteSpace=wrap;connectable=0;fillColor=none;top=0;left=0;bottom=0;right=0;overflow=hidden;" parent="rESO7nxcmDGdPn7ryyiX-14" vertex="1">
          <mxGeometry width="50" height="43" as="geometry">
            <mxRectangle width="50" height="43" as="alternateBounds" />
          </mxGeometry>
        </mxCell>
        <mxCell id="rESO7nxcmDGdPn7ryyiX-16" value="" style="shape=partialRectangle;html=1;whiteSpace=wrap;connectable=0;fillColor=none;top=0;left=0;bottom=0;right=0;overflow=hidden;" parent="rESO7nxcmDGdPn7ryyiX-14" vertex="1">
          <mxGeometry x="50" width="86" height="43" as="geometry">
            <mxRectangle width="86" height="43" as="alternateBounds" />
          </mxGeometry>
        </mxCell>
        <mxCell id="rESO7nxcmDGdPn7ryyiX-17" value="" style="shape=partialRectangle;html=1;whiteSpace=wrap;connectable=0;fillColor=none;top=0;left=0;bottom=0;right=0;overflow=hidden;pointerEvents=1;" parent="rESO7nxcmDGdPn7ryyiX-14" vertex="1">
          <mxGeometry x="136" width="44" height="43" as="geometry">
            <mxRectangle width="44" height="43" as="alternateBounds" />
          </mxGeometry>
        </mxCell>
        <mxCell id="rESO7nxcmDGdPn7ryyiX-51" style="shape=partialRectangle;html=1;whiteSpace=wrap;connectable=0;fillColor=none;top=0;left=0;bottom=0;right=0;overflow=hidden;pointerEvents=1;" parent="rESO7nxcmDGdPn7ryyiX-14" vertex="1">
          <mxGeometry x="180" width="60" height="43" as="geometry">
            <mxRectangle width="60" height="43" as="alternateBounds" />
          </mxGeometry>
        </mxCell>
        <mxCell id="rESO7nxcmDGdPn7ryyiX-53" value="operator" style="ellipse;whiteSpace=wrap;html=1;aspect=fixed;" parent="1" vertex="1">
          <mxGeometry x="750" y="20" width="60" height="60" as="geometry" />
        </mxCell>
        <mxCell id="rESO7nxcmDGdPn7ryyiX-54" value="Global info" style="rounded=1;whiteSpace=wrap;html=1;" parent="1" vertex="1">
          <mxGeometry x="30" y="20" width="700" height="60" as="geometry" />
        </mxCell>
        <mxCell id="rESO7nxcmDGdPn7ryyiX-96" value="add colums with more information" style="whiteSpace=wrap;html=1;startSize=0;" parent="1" vertex="1">
          <mxGeometry x="330" y="110" width="150" height="65" as="geometry" />
        </mxCell>
        <mxCell id="rESO7nxcmDGdPn7ryyiX-110" style="edgeStyle=orthogonalEdgeStyle;rounded=0;orthogonalLoop=1;jettySize=auto;html=1;" parent="1" source="rESO7nxcmDGdPn7ryyiX-104" target="rESO7nxcmDGdPn7ryyiX-106" edge="1">
          <mxGeometry relative="1" as="geometry" />
        </mxCell>
        <mxCell id="rESO7nxcmDGdPn7ryyiX-104" value="&#xa;&lt;span style=&quot;color: rgb(0, 0, 0); font-family: Helvetica; font-size: 12px; font-style: normal; font-variant-ligatures: normal; font-variant-caps: normal; font-weight: 400; letter-spacing: normal; orphans: 2; text-align: center; text-indent: 0px; text-transform: none; widows: 2; word-spacing: 0px; -webkit-text-stroke-width: 0px; background-color: rgb(248, 249, 250); text-decoration-thickness: initial; text-decoration-style: initial; text-decoration-color: initial; float: none; display: inline !important;&quot;&gt;add aplication in bd&lt;/span&gt;&#xa;&#xa;" style="shape=cylinder3;whiteSpace=wrap;html=1;boundedLbl=1;backgroundOutline=1;size=15;" parent="1" vertex="1">
          <mxGeometry x="140" y="270" width="60" height="120" as="geometry" />
        </mxCell>
        <mxCell id="rESO7nxcmDGdPn7ryyiX-106" value="BD tables" style="swimlane;fontStyle=0;childLayout=stackLayout;horizontal=1;startSize=30;horizontalStack=0;resizeParent=1;resizeParentMax=0;resizeLast=0;collapsible=1;marginBottom=0;" parent="1" vertex="1">
          <mxGeometry x="30" y="450" width="140" height="180" as="geometry" />
        </mxCell>
        <mxCell id="rESO7nxcmDGdPn7ryyiX-107" value="all_aplication " style="text;strokeColor=none;fillColor=none;align=left;verticalAlign=middle;spacingLeft=4;spacingRight=4;overflow=hidden;points=[[0,0.5],[1,0.5]];portConstraint=eastwest;rotatable=0;" parent="rESO7nxcmDGdPn7ryyiX-106" vertex="1">
          <mxGeometry y="30" width="140" height="30" as="geometry" />
        </mxCell>
        <mxCell id="rESO7nxcmDGdPn7ryyiX-108" value="operators" style="text;strokeColor=none;fillColor=none;align=left;verticalAlign=middle;spacingLeft=4;spacingRight=4;overflow=hidden;points=[[0,0.5],[1,0.5]];portConstraint=eastwest;rotatable=0;" parent="rESO7nxcmDGdPn7ryyiX-106" vertex="1">
          <mxGeometry y="60" width="140" height="30" as="geometry" />
        </mxCell>
        <mxCell id="rESO7nxcmDGdPn7ryyiX-109" value="Problems" style="text;strokeColor=none;fillColor=none;align=left;verticalAlign=middle;spacingLeft=4;spacingRight=4;overflow=hidden;points=[[0,0.5],[1,0.5]];portConstraint=eastwest;rotatable=0;" parent="rESO7nxcmDGdPn7ryyiX-106" vertex="1">
          <mxGeometry y="90" width="140" height="30" as="geometry" />
        </mxCell>
        <mxCell id="rESO7nxcmDGdPn7ryyiX-111" value="aplication_state" style="text;strokeColor=none;fillColor=none;align=left;verticalAlign=middle;spacingLeft=4;spacingRight=4;overflow=hidden;points=[[0,0.5],[1,0.5]];portConstraint=eastwest;rotatable=0;" parent="rESO7nxcmDGdPn7ryyiX-106" vertex="1">
          <mxGeometry y="120" width="140" height="30" as="geometry" />
        </mxCell>
        <mxCell id="rESO7nxcmDGdPn7ryyiX-112" style="text;strokeColor=none;fillColor=none;align=left;verticalAlign=middle;spacingLeft=4;spacingRight=4;overflow=hidden;points=[[0,0.5],[1,0.5]];portConstraint=eastwest;rotatable=0;" parent="rESO7nxcmDGdPn7ryyiX-106" vertex="1">
          <mxGeometry y="150" width="140" height="30" as="geometry" />
        </mxCell>
      </root>
    </mxGraphModel>
  </diagram>
</mxfile>
